<svg width="92" height="90" viewBox="0 0 92 90" fill="none" xmlns="http://www.w3.org/2000/svg">
<g filter="url(#filter0_d)">
<path d="M14.8891 58.1777C5.15051 46.3095 9.79544 18.2891 30.3086 9.03908C57.4469 -3.19847 90.4792 33.5158 80.0161 60.6763C69.9556 86.7915 27.773 73.879 14.8891 58.1777Z" fill="#BEFC67"/>
</g>
<path d="M50.9023 54.6152C50.694 54.1986 50.5247 53.4564 50.3945 52.3887C48.7148 54.1335 46.7096 55.0059 44.3789 55.0059C42.2956 55.0059 40.5833 54.4199 39.2422 53.248C37.9141 52.0632 37.25 50.5658 37.25 48.7559C37.25 46.5553 38.0833 44.8496 39.75 43.6387C41.4297 42.4147 43.7865 41.8027 46.8203 41.8027H50.3359V40.1426C50.3359 38.8796 49.9583 37.877 49.2031 37.1348C48.4479 36.3796 47.3346 36.002 45.8633 36.002C44.5742 36.002 43.4935 36.3275 42.6211 36.9785C41.7487 37.6296 41.3125 38.4173 41.3125 39.3418H37.6797C37.6797 38.2871 38.0508 37.2715 38.793 36.2949C39.5482 35.3053 40.5638 34.5241 41.8398 33.9512C43.1289 33.3783 44.5417 33.0918 46.0781 33.0918C48.513 33.0918 50.4206 33.7038 51.8008 34.9277C53.181 36.1387 53.8971 37.8118 53.9492 39.9473V49.6738C53.9492 51.6139 54.1966 53.1569 54.6914 54.3027V54.6152H50.9023ZM44.9062 51.8613C46.0391 51.8613 47.1133 51.5684 48.1289 50.9824C49.1445 50.3965 49.8802 49.6348 50.3359 48.6973V44.3613H47.5039C43.0768 44.3613 40.8633 45.6569 40.8633 48.248C40.8633 49.3809 41.2409 50.2663 41.9961 50.9043C42.7513 51.5423 43.7214 51.8613 44.9062 51.8613Z" fill="#8CCD31"/>
<defs>
<filter id="filter0_d" x="0" y="0.615234" width="92" height="89" filterUnits="userSpaceOnUse" color-interpolation-filters="sRGB">
<feFlood flood-opacity="0" result="BackgroundImageFix"/>
<feColorMatrix in="SourceAlpha" type="matrix" values="0 0 0 0 0 0 0 0 0 0 0 0 0 0 0 0 0 0 127 0"/>
<feOffset dy="4"/>
<feGaussianBlur stdDeviation="5"/>
<feColorMatrix type="matrix" values="0 0 0 0 0.549019 0 0 0 0 0.804167 0 0 0 0 0.19099 0 0 0 1 0"/>
<feBlend mode="normal" in2="BackgroundImageFix" result="effect1_dropShadow"/>
<feBlend mode="normal" in="SourceGraphic" in2="effect1_dropShadow" result="shape"/>
</filter>
</defs>
</svg>
