<svg width="49" height="49" viewBox="0 0 49 49" fill="none" xmlns="http://www.w3.org/2000/svg">
<circle r="19.7391" transform="matrix(1 0 0 -1 24.5 24.5)" stroke="#F8F8F8"/>
<circle r="24" transform="matrix(1 0 0 -1 24.5 24.5)" stroke="#F8F8F8"/>
<path d="M24.5566 31.59C24.7524 31.7847 25.069 31.7838 25.2637 31.588L28.4369 28.3972C28.6316 28.2014 28.6307 27.8848 28.4349 27.6901C28.2391 27.4954 27.9225 27.4963 27.7278 27.6921L24.9073 30.5283L22.071 27.7077C21.8752 27.513 21.5586 27.5139 21.3639 27.7097C21.1692 27.9055 21.17 28.2221 21.3659 28.4168L24.5566 31.59ZM24.377 19.6014L24.4092 31.2368L25.4092 31.234L25.377 19.5986L24.377 19.6014Z" fill="#F8F8F8"/>
</svg>
