<svg width="92" height="89" viewBox="0 0 92 89" fill="none" xmlns="http://www.w3.org/2000/svg">
<g filter="url(#filter0_d)">
<path d="M14.8891 57.5625C5.15051 45.6943 9.79544 17.6739 30.3086 8.42385C57.4469 -3.8137 90.4792 32.9006 80.0161 60.0611C69.9556 86.1762 27.773 73.2638 14.8891 57.5625Z" fill="#BEFC67"/>
</g>
<path d="M54.8945 43.668C54.8945 46.8971 54.1523 49.4948 52.668 51.4609C51.1836 53.4141 49.1914 54.3906 46.6914 54.3906C44.0221 54.3906 41.9583 53.4466 40.5 51.5586L40.3242 54H37.0039V24H40.6172V35.1914C42.0755 33.3815 44.0872 32.4766 46.6523 32.4766C49.2174 32.4766 51.2292 33.4466 52.6875 35.3867C54.1589 37.3268 54.8945 39.9831 54.8945 43.3555V43.668ZM51.2812 43.2578C51.2812 40.7969 50.806 38.8958 49.8555 37.5547C48.9049 36.2135 47.5378 35.543 45.7539 35.543C43.3711 35.543 41.6589 36.6497 40.6172 38.8633V48.0039C41.724 50.2174 43.4492 51.3242 45.793 51.3242C47.5247 51.3242 48.8724 50.6536 49.8359 49.3125C50.7995 47.9714 51.2812 45.9531 51.2812 43.2578Z" fill="#8CCD31"/>
<defs>
<filter id="filter0_d" x="0" y="0" width="92" height="89" filterUnits="userSpaceOnUse" color-interpolation-filters="sRGB">
<feFlood flood-opacity="0" result="BackgroundImageFix"/>
<feColorMatrix in="SourceAlpha" type="matrix" values="0 0 0 0 0 0 0 0 0 0 0 0 0 0 0 0 0 0 127 0"/>
<feOffset dy="4"/>
<feGaussianBlur stdDeviation="5"/>
<feColorMatrix type="matrix" values="0 0 0 0 0.549019 0 0 0 0 0.804167 0 0 0 0 0.19099 0 0 0 1 0"/>
<feBlend mode="normal" in2="BackgroundImageFix" result="effect1_dropShadow"/>
<feBlend mode="normal" in="SourceGraphic" in2="effect1_dropShadow" result="shape"/>
</filter>
</defs>
</svg>
