<svg width="92" height="89" viewBox="0 0 92 89" fill="none" xmlns="http://www.w3.org/2000/svg">
<g filter="url(#filter0_d)">
<path d="M14.8891 57.5625C5.15051 45.6943 9.79544 17.6739 30.3086 8.42385C57.4469 -3.8137 90.4792 32.9006 80.0161 60.0611C69.9556 86.1762 27.773 73.2638 14.8891 57.5625Z" fill="#BEFC67"/>
</g>
<path d="M46.2422 48.4414C47.5312 48.4414 48.6576 48.0508 49.6211 47.2695C50.5846 46.4883 51.1185 45.5117 51.2227 44.3398H54.6406C54.5755 45.5508 54.1589 46.7031 53.3906 47.7969C52.6224 48.8906 51.5938 49.763 50.3047 50.4141C49.0286 51.0651 47.6745 51.3906 46.2422 51.3906C43.3646 51.3906 41.0729 50.4336 39.3672 48.5195C37.6745 46.5924 36.8281 43.9622 36.8281 40.6289V40.0234C36.8281 37.9661 37.2057 36.1367 37.9609 34.5352C38.7161 32.9336 39.7969 31.6901 41.2031 30.8047C42.6224 29.9193 44.2956 29.4766 46.2227 29.4766C48.5924 29.4766 50.5586 30.1862 52.1211 31.6055C53.6966 33.0247 54.5365 34.8672 54.6406 37.1328H51.2227C51.1185 35.7656 50.5977 34.6458 49.6602 33.7734C48.7357 32.888 47.5898 32.4453 46.2227 32.4453C44.3867 32.4453 42.9609 33.1094 41.9453 34.4375C40.9427 35.7526 40.4414 37.6602 40.4414 40.1602V40.8438C40.4414 43.2786 40.9427 45.1536 41.9453 46.4688C42.9479 47.7839 44.3802 48.4414 46.2422 48.4414Z" fill="#8CCD31"/>
<defs>
<filter id="filter0_d" x="0" y="0" width="92" height="89" filterUnits="userSpaceOnUse" color-interpolation-filters="sRGB">
<feFlood flood-opacity="0" result="BackgroundImageFix"/>
<feColorMatrix in="SourceAlpha" type="matrix" values="0 0 0 0 0 0 0 0 0 0 0 0 0 0 0 0 0 0 127 0"/>
<feOffset dy="4"/>
<feGaussianBlur stdDeviation="5"/>
<feColorMatrix type="matrix" values="0 0 0 0 0.549019 0 0 0 0 0.804167 0 0 0 0 0.19099 0 0 0 1 0"/>
<feBlend mode="normal" in2="BackgroundImageFix" result="effect1_dropShadow"/>
<feBlend mode="normal" in="SourceGraphic" in2="effect1_dropShadow" result="shape"/>
</filter>
</defs>
</svg>
