<svg width="92" height="89" viewBox="0 0 92 89" fill="none" xmlns="http://www.w3.org/2000/svg">
<g filter="url(#filter0_d)">
<path d="M14.8891 57.5625C5.15051 45.6943 9.79544 17.6739 30.3086 8.42385C57.4469 -3.8137 90.4792 32.9006 80.0161 60.0611C69.9556 86.1762 27.773 73.2638 14.8891 57.5625Z" fill="#BEFC67"/>
</g>
<path d="M46.8984 54.3906C44.0339 54.3906 41.7031 53.4531 39.9062 51.5781C38.1094 49.6901 37.2109 47.1706 37.2109 44.0195V43.3555C37.2109 41.2591 37.6081 39.3906 38.4023 37.75C39.2096 36.0964 40.3294 34.8073 41.7617 33.8828C43.207 32.9453 44.7695 32.4766 46.4492 32.4766C49.1966 32.4766 51.332 33.3815 52.8555 35.1914C54.3789 37.0013 55.1406 39.5924 55.1406 42.9648V44.4688H40.8242C40.8763 46.5521 41.4818 48.2383 42.6406 49.5273C43.8125 50.8034 45.2969 51.4414 47.0938 51.4414C48.3698 51.4414 49.4505 51.181 50.3359 50.6602C51.2214 50.1393 51.9961 49.4492 52.6602 48.5898L54.8672 50.3086C53.0964 53.0299 50.4401 54.3906 46.8984 54.3906ZM46.4492 35.4453C44.9909 35.4453 43.7669 35.9792 42.7773 37.0469C41.7878 38.1016 41.1758 39.5859 40.9414 41.5H51.5273V41.2266C51.4232 39.3906 50.9284 37.9714 50.043 36.9688C49.1576 35.9531 47.9596 35.4453 46.4492 35.4453Z" fill="#8CCD31"/>
<defs>
<filter id="filter0_d" x="0" y="0" width="92" height="89" filterUnits="userSpaceOnUse" color-interpolation-filters="sRGB">
<feFlood flood-opacity="0" result="BackgroundImageFix"/>
<feColorMatrix in="SourceAlpha" type="matrix" values="0 0 0 0 0 0 0 0 0 0 0 0 0 0 0 0 0 0 127 0"/>
<feOffset dy="4"/>
<feGaussianBlur stdDeviation="5"/>
<feColorMatrix type="matrix" values="0 0 0 0 0.549019 0 0 0 0 0.804167 0 0 0 0 0.19099 0 0 0 1 0"/>
<feBlend mode="normal" in2="BackgroundImageFix" result="effect1_dropShadow"/>
<feBlend mode="normal" in="SourceGraphic" in2="effect1_dropShadow" result="shape"/>
</filter>
</defs>
</svg>
