<svg width="92" height="89" viewBox="0 0 92 89" fill="none" xmlns="http://www.w3.org/2000/svg">
<g filter="url(#filter0_d)">
<path d="M14.8891 57.5625C5.15051 45.6943 9.79544 17.6739 30.3086 8.42385C57.4469 -3.8137 90.4792 32.9006 80.0161 60.0611C69.9556 86.1762 27.773 73.2638 14.8891 57.5625Z" fill="#BEFC67"/>
</g>
<path d="M43.5586 54V35.6602H40.2188V32.8672H43.5586V30.6992C43.5586 28.4336 44.1641 26.6823 45.375 25.4453C46.5859 24.2083 48.2982 23.5898 50.5117 23.5898C51.3451 23.5898 52.1719 23.7005 52.9922 23.9219L52.7969 26.8516C52.1849 26.7344 51.5339 26.6758 50.8438 26.6758C49.6719 26.6758 48.7669 27.0208 48.1289 27.7109C47.4909 28.388 47.1719 29.3646 47.1719 30.6406V32.8672H51.6836V35.6602H47.1719V54H43.5586Z" fill="#8CCD31"/>
<defs>
<filter id="filter0_d" x="0" y="0" width="92" height="89" filterUnits="userSpaceOnUse" color-interpolation-filters="sRGB">
<feFlood flood-opacity="0" result="BackgroundImageFix"/>
<feColorMatrix in="SourceAlpha" type="matrix" values="0 0 0 0 0 0 0 0 0 0 0 0 0 0 0 0 0 0 127 0"/>
<feOffset dy="4"/>
<feGaussianBlur stdDeviation="5"/>
<feColorMatrix type="matrix" values="0 0 0 0 0.549019 0 0 0 0 0.804167 0 0 0 0 0.19099 0 0 0 1 0"/>
<feBlend mode="normal" in2="BackgroundImageFix" result="effect1_dropShadow"/>
<feBlend mode="normal" in="SourceGraphic" in2="effect1_dropShadow" result="shape"/>
</filter>
</defs>
</svg>
