<svg width="25" height="24" viewBox="0 0 25 24" fill="none" xmlns="http://www.w3.org/2000/svg">
<path d="M4.9363 0C2.51125 0 0.558594 1.95468 0.558594 4.38226V19.6178C0.558594 22.0453 2.51125 24 4.9363 24H13.1852V14.6175H10.7068V11.2395H13.1852V8.35351C13.1852 6.08611 14.6496 4.00426 18.023 4.00426C19.3888 4.00426 20.3988 4.13551 20.3988 4.13551L20.3193 7.29002C20.3193 7.29002 19.2893 7.28028 18.1653 7.28028C16.9488 7.28028 16.7538 7.84135 16.7538 8.77279V11.2395H20.416L20.2564 14.6175H16.7538V24H20.156C22.581 24 24.5337 22.0454 24.5337 19.6178V4.38228C24.5337 1.9547 22.581 2.4e-05 20.156 2.4e-05H4.93628L4.9363 0Z" fill="white"/>
</svg>
