<svg width="92" height="90" viewBox="0 0 92 90" fill="none" xmlns="http://www.w3.org/2000/svg">
<g filter="url(#filter0_d)">
<path d="M14.8891 57.9473C5.15051 46.079 9.79544 18.0586 30.3086 8.80861C57.4469 -3.42894 90.4792 33.2854 80.0161 60.4458C69.9556 86.561 27.773 73.6485 14.8891 57.9473Z" fill="#BEFC67"/>
</g>
<path d="M37.1445 40.2578C37.1445 36.9635 37.9062 34.3464 39.4297 32.4062C40.9531 30.4531 42.9714 29.4766 45.4844 29.4766C48.0625 29.4766 50.0742 30.388 51.5195 32.2109L51.6953 29.8672H54.9961V50.4922C54.9961 53.2266 54.1823 55.3815 52.5547 56.957C50.9401 58.5326 48.7656 59.3203 46.0312 59.3203C44.5078 59.3203 43.0169 58.9948 41.5586 58.3438C40.1003 57.6927 38.987 56.8008 38.2188 55.668L40.0938 53.5C41.6432 55.4141 43.5378 56.3711 45.7773 56.3711C47.5352 56.3711 48.9023 55.8763 49.8789 54.8867C50.8685 53.8971 51.3633 52.5039 51.3633 50.707V48.8906C49.918 50.5573 47.9453 51.3906 45.4453 51.3906C42.9714 51.3906 40.9661 50.3945 39.4297 48.4023C37.9062 46.4102 37.1445 43.6953 37.1445 40.2578ZM40.7773 40.668C40.7773 43.0508 41.2656 44.9258 42.2422 46.293C43.2188 47.6471 44.5859 48.3242 46.3438 48.3242C48.6224 48.3242 50.2956 47.2891 51.3633 45.2188V35.5703C50.2565 33.5521 48.5964 32.543 46.3828 32.543C44.625 32.543 43.2513 33.2266 42.2617 34.5938C41.2721 35.9609 40.7773 37.9857 40.7773 40.668Z" fill="#8CCD31"/>
<defs>
<filter id="filter0_d" x="0" y="0.384766" width="92" height="89" filterUnits="userSpaceOnUse" color-interpolation-filters="sRGB">
<feFlood flood-opacity="0" result="BackgroundImageFix"/>
<feColorMatrix in="SourceAlpha" type="matrix" values="0 0 0 0 0 0 0 0 0 0 0 0 0 0 0 0 0 0 127 0"/>
<feOffset dy="4"/>
<feGaussianBlur stdDeviation="5"/>
<feColorMatrix type="matrix" values="0 0 0 0 0.549019 0 0 0 0 0.804167 0 0 0 0 0.19099 0 0 0 1 0"/>
<feBlend mode="normal" in2="BackgroundImageFix" result="effect1_dropShadow"/>
<feBlend mode="normal" in="SourceGraphic" in2="effect1_dropShadow" result="shape"/>
</filter>
</defs>
</svg>
