<svg width="24" height="24" viewBox="0 0 24 24" fill="none" xmlns="http://www.w3.org/2000/svg">
<path d="M11.9845 7.9983C9.78329 7.9983 7.98695 9.79651 7.98695 12C7.98695 14.2035 9.78329 16.0017 11.9845 16.0017C14.1857 16.0017 15.982 14.2035 15.982 12C15.982 9.79651 14.1857 7.9983 11.9845 7.9983ZM23.9741 12C23.9741 10.3429 23.9891 8.70077 23.8961 7.04665C23.8031 5.12536 23.3653 3.4202 21.9618 2.01525C20.5553 0.607302 18.8549 0.172008 16.9357 0.0789456C15.2803 -0.0141173 13.6399 0.000892936 11.9875 0.000892936C10.3321 0.000892936 8.69169 -0.0141173 7.0393 0.0789456C5.12001 0.172008 3.41663 0.610305 2.01315 2.01525C0.606669 3.42321 0.171829 5.12536 0.0788632 7.04665C-0.0141025 8.70377 0.000892004 10.3459 0.000892004 12C0.000892004 13.6541 -0.0141025 15.2992 0.0788632 16.9533C0.171829 18.8746 0.609668 20.5798 2.01315 21.9847C3.41963 23.3927 5.12001 23.828 7.0393 23.9211C8.69469 24.0141 10.3351 23.9991 11.9875 23.9991C13.6429 23.9991 15.2833 24.0141 16.9357 23.9211C18.8549 23.828 20.5583 23.3897 21.9618 21.9847C23.3683 20.5768 23.8031 18.8746 23.8961 16.9533C23.9921 15.2992 23.9741 13.6571 23.9741 12ZM11.9845 18.1572C8.58073 18.1572 5.83374 15.4073 5.83374 12C5.83374 8.5927 8.58073 5.84284 11.9845 5.84284C15.3882 5.84284 18.1352 8.5927 18.1352 12C18.1352 15.4073 15.3882 18.1572 11.9845 18.1572ZM18.3871 7.02864C17.5924 7.02864 16.9506 6.38621 16.9506 5.59067C16.9506 4.79513 17.5924 4.1527 18.3871 4.1527C19.1818 4.1527 19.8236 4.79513 19.8236 5.59067C19.8238 5.77957 19.7868 5.96667 19.7147 6.14124C19.6426 6.31581 19.5368 6.47442 19.4034 6.608C19.2699 6.74157 19.1115 6.84748 18.9371 6.91967C18.7627 6.99185 18.5758 7.02888 18.3871 7.02864Z" fill="white"/>
</svg>
