<svg width="24" height="24" viewBox="0 0 24 24" fill="none" xmlns="http://www.w3.org/2000/svg">
<path d="M11.2624 0.00391952C9.33841 0.0271695 5.20195 0.34367 2.88836 2.46842C1.16739 4.17542 0.566519 6.69917 0.496092 9.81992C0.437653 12.9294 0.367226 18.7689 5.99014 20.3589V22.7807C5.99014 22.7807 5.95492 23.7497 6.59476 23.9484C7.38294 24.1982 7.83172 23.4527 8.58095 22.6517L9.97824 21.0699C13.8255 21.3902 16.7722 20.6522 17.1116 20.5427C17.8923 20.2929 22.2895 19.7304 23.008 13.8902C23.7452 7.85867 22.6491 4.05842 20.6704 2.33942H20.6584C20.0613 1.78892 17.6615 0.0384195 12.3001 0.0189195C12.3001 0.0189195 11.9022 -0.00808048 11.2624 0.00316952V0.00391952ZM11.3283 1.69967C11.8745 1.69592 12.2064 1.71917 12.2064 1.71917C16.7445 1.73117 18.9105 3.09842 19.4214 3.55892C21.0877 4.98842 21.9463 8.41442 21.3177 13.4499C20.7206 18.3324 17.1543 18.6414 16.4942 18.8522C16.2133 18.9422 13.618 19.5827 10.3484 19.3719C10.3484 19.3719 7.91339 22.3134 7.15218 23.0709C7.03155 23.2037 6.8907 23.2427 6.80079 23.2232C6.67193 23.1917 6.63297 23.0319 6.64046 22.8129L6.66369 18.7937C1.89489 17.4737 2.17585 12.4929 2.22679 9.89117C2.28523 7.28942 2.77298 5.16092 4.22497 3.71942C6.17969 1.95017 9.69204 1.71167 11.3268 1.69967H11.3283ZM11.688 4.30067C11.6487 4.30027 11.6098 4.30766 11.5734 4.3224C11.537 4.33714 11.5039 4.35894 11.476 4.38655C11.448 4.41416 11.4258 4.44702 11.4107 4.48326C11.3955 4.51949 11.3876 4.55838 11.3875 4.59767C11.3875 4.76567 11.5239 4.89842 11.688 4.89842C12.4308 4.88428 13.1691 5.0175 13.8603 5.29039C14.5515 5.56328 15.1818 5.97045 15.715 6.48842C16.8037 7.54667 17.3341 8.96867 17.3543 10.8279C17.3543 10.9922 17.4869 11.1287 17.6548 11.1287V11.1167C17.7339 11.1169 17.8098 11.0858 17.8661 11.0301C17.9224 10.9745 17.9544 10.8988 17.9552 10.8197C17.9916 9.94453 17.8498 9.07113 17.5385 8.25254C17.2272 7.43396 16.7529 6.68729 16.1443 6.05792C14.9583 4.89767 13.4554 4.29992 11.688 4.29992V4.30067ZM7.73882 4.98842C7.52675 4.9574 7.31046 5.00002 7.12596 5.10917H7.11022C6.68186 5.36052 6.29598 5.67821 5.96691 6.05042C5.69344 6.36692 5.5451 6.68717 5.50614 6.99542C5.48291 7.17917 5.49865 7.36292 5.55334 7.53842L5.57282 7.55042C5.88075 8.45642 6.28308 9.32792 6.77457 10.1484C7.40768 11.3011 8.18682 12.3672 9.09266 13.3202L9.11964 13.3592L9.16234 13.3907L9.18931 13.4222L9.22078 13.4492C10.1762 14.3586 11.2437 15.1422 12.3975 15.7809C13.7161 16.4994 14.5163 16.8392 14.9965 16.9802V16.9877C15.1374 17.0304 15.2655 17.0499 15.3944 17.0499C15.8037 17.0199 16.1911 16.8536 16.495 16.5774C16.8651 16.2479 17.1789 15.8601 17.424 15.4292V15.4217C17.654 14.9882 17.5761 14.5779 17.2442 14.3004C16.5795 13.7188 15.8607 13.2022 15.0977 12.7577C14.5867 12.4802 14.0675 12.6482 13.857 12.9294L13.4082 13.4957C13.1782 13.7769 12.7601 13.7379 12.7601 13.7379L12.7481 13.7454C9.6306 12.9482 8.79897 9.78842 8.79897 9.78842C8.79897 9.78842 8.76001 9.35867 9.04846 9.13967L9.61038 8.68667C9.87935 8.46767 10.0667 7.94867 9.7782 7.43642C9.33721 6.67154 8.82227 5.95183 8.2408 5.28767C8.11368 5.13109 7.93534 5.02456 7.73732 4.98692L7.73882 4.98842ZM12.2064 5.87942C11.8086 5.87942 11.8086 6.48092 12.2102 6.48092C12.7049 6.48895 13.1931 6.5945 13.6471 6.79152C14.101 6.98854 14.5117 7.27318 14.8557 7.62917C15.1695 7.97568 15.4106 8.38171 15.5648 8.8232C15.719 9.2647 15.783 9.73268 15.7532 10.1994C15.7546 10.2784 15.7868 10.3537 15.843 10.4092C15.8991 10.4647 15.9748 10.496 16.0537 10.4964L16.0657 10.5122C16.1452 10.5116 16.2212 10.4797 16.2775 10.4234C16.3337 10.3672 16.3655 10.291 16.3661 10.2114C16.3931 9.01967 16.023 8.01992 15.297 7.21892C14.5672 6.41792 13.549 5.96867 12.2491 5.87942H12.2064ZM12.6987 7.49642C12.2888 7.48442 12.2731 8.09792 12.6792 8.10992C13.6667 8.16092 14.1462 8.66042 14.2091 9.68792C14.2105 9.76591 14.2423 9.84027 14.2977 9.89508C14.3532 9.94989 14.4279 9.98079 14.5058 9.98117H14.5178C14.5578 9.97945 14.5972 9.96976 14.6334 9.95266C14.6697 9.93557 14.7022 9.91141 14.7291 9.8816C14.7559 9.85178 14.7766 9.81692 14.7898 9.77903C14.8031 9.74114 14.8087 9.70099 14.8062 9.66092C14.7358 8.32142 14.0061 7.56692 12.7107 7.49717H12.6987V7.49642Z" fill="white"/>
</svg>
