<svg width="25" height="24" viewBox="0 0 25 24" fill="none" xmlns="http://www.w3.org/2000/svg">
<path d="M15.7838 0H8.42428C1.7083 0 0.116211 1.59375 0.116211 8.31675V15.684C0.116211 22.407 1.7083 24.0007 8.42428 24.0007H15.7838C22.4998 24.0007 24.0919 22.407 24.0919 15.684V8.31675C24.0919 1.59375 22.4841 0 15.7838 0ZM19.4715 17.121H17.7311C17.0717 17.121 16.8687 16.5975 15.6827 15.3945C14.6525 14.3947 14.1962 14.262 13.9423 14.262C13.5834 14.262 13.4815 14.3633 13.4815 14.856V16.4303C13.4815 16.8525 13.3489 17.106 12.2326 17.106C10.3865 17.106 8.33812 15.9885 6.90187 13.9065C4.73588 10.8555 4.14325 8.57025 4.14325 8.09775C4.14325 7.8435 4.2444 7.60575 4.73214 7.60575H6.47632C6.91761 7.60575 7.08543 7.809 7.257 8.2815C8.11935 10.7738 9.5556 12.957 10.1482 12.957C10.367 12.957 10.4681 12.8558 10.4681 12.297V9.723C10.4015 8.53575 9.77737 8.43375 9.77737 8.01225C9.77737 7.809 9.94519 7.60575 10.2142 7.60575H12.957C13.3279 7.60575 13.4643 7.809 13.4643 8.24625V11.7188C13.4643 12.0938 13.6321 12.2265 13.7332 12.2265C13.952 12.2265 14.1393 12.0938 14.5446 11.6873C15.7973 10.281 16.6949 8.11275 16.6949 8.11275C16.8118 7.8585 17.0148 7.62075 17.4561 7.62075H19.2003C19.7232 7.62075 19.8401 7.89 19.7232 8.265C19.5045 9.2805 17.3699 12.2963 17.3699 12.2963C17.1864 12.6007 17.1159 12.7335 17.3699 13.0732C17.5572 13.3275 18.1664 13.8548 18.5717 14.3273C19.3172 15.1748 19.8903 15.8857 20.0431 16.3778C20.2147 16.866 19.9615 17.1203 19.4692 17.1203L19.4715 17.121Z" fill="white"/>
</svg>
